<svg width="200" height="30" viewBox="0 0 200 30" fill="none" xmlns="http://www.w3.org/2000/svg">
<path d="M31 2H36.0531V20.3375H45.1281V24.3031H31V2Z" fill="#282C33"/>
<path d="M46.5938 18.5719V8.0625H51.0844V17.9531C51.0844 20.1656 52.0219 21.225 53.8969 21.225C54.3665 21.2493 54.8357 21.1715 55.2723 20.997C55.709 20.8224 56.1026 20.5553 56.426 20.214C56.7495 19.8728 56.9951 19.4654 57.146 19.0201C57.2969 18.5747 57.3494 18.102 57.3 17.6344V8.0625H61.7906V24.375H57.3281V21.8156C56.8398 22.7507 56.0891 23.523 55.1681 24.0375C54.2472 24.5521 53.1961 24.7867 52.1437 24.7125C48.9656 24.7125 46.5938 22.8469 46.5938 18.5719Z" fill="#282C33"/>
<path d="M63.9375 16.425V16.1719C63.8898 15.0511 64.0753 13.9326 64.4825 12.8873C64.8896 11.842 65.5094 10.8927 66.3026 10.0995C67.0958 9.30626 68.0452 8.68645 69.0905 8.27932C70.1358 7.8722 71.2543 7.68664 72.375 7.7344C76.125 7.7344 79.6406 9.3844 80.0438 14.0625H75.75C75.7268 13.658 75.6219 13.2623 75.4416 12.8995C75.2613 12.5366 75.0093 12.214 74.7009 11.9512C74.3925 11.6884 74.0341 11.4907 73.6472 11.3702C73.2604 11.2497 72.8531 11.2088 72.45 11.25C70.1063 11.25 68.55 13.0031 68.55 16.1156V16.3687C68.55 19.6406 70.0125 21.3281 72.5438 21.3281C72.9803 21.3534 73.4175 21.2916 73.8299 21.1465C74.2424 21.0013 74.6219 20.7757 74.9464 20.4826C75.2709 20.1895 75.5339 19.8348 75.7201 19.4392C75.9064 19.0436 76.0121 18.615 76.0313 18.1781H80.1188C79.875 22.0406 77.0625 24.7406 72.3282 24.7406C67.5938 24.7406 63.9375 21.75 63.9375 16.425Z" fill="#282C33"/>
<path d="M82.2656 3.38443C82.2432 2.86953 82.3755 2.35971 82.6456 1.92077C82.9158 1.48184 83.3112 1.13394 83.781 0.921973C84.2508 0.710011 84.7733 0.643718 85.2812 0.731649C85.789 0.819581 86.2588 1.05771 86.63 1.41528C87.0012 1.77286 87.2567 2.23347 87.3635 2.73767C87.4703 3.24187 87.4235 3.76651 87.2292 4.24388C87.0349 4.72124 86.702 5.12942 86.2735 5.41572C85.8449 5.70202 85.3404 5.85331 84.825 5.85005C84.4938 5.86135 84.1636 5.806 83.8541 5.68728C83.5447 5.56856 83.2622 5.38888 83.0235 5.15892C82.7848 4.92896 82.5947 4.65339 82.4645 4.34857C82.3343 4.04375 82.2667 3.71588 82.2656 3.38443ZM82.6125 8.07193H87.1031V24.375H82.6125V8.07193Z" fill="#282C33"/>
<path d="M89.0625 16.4531V16.2C89.0625 10.8375 92.1469 7.6875 96.2344 7.6875C97.2714 7.61528 98.3073 7.84183 99.2195 8.3403C100.132 8.83877 100.882 9.58827 101.381 10.5V0.9375H105.872V24.375H101.381V21.6563C100.864 22.5907 100.104 23.368 99.1818 23.906C98.2593 24.444 97.2085 24.7226 96.1406 24.7125C92.1844 24.7125 89.0625 21.8812 89.0625 16.4531ZM101.25 16.2937V16.05C101.25 12.8063 99.8156 11.1469 97.35 11.1469C94.8844 11.1469 93.4219 12.8625 93.4219 16.1063V16.3594C93.4219 19.6031 94.9875 21.1875 97.2281 21.1875C99.4687 21.1875 101.25 19.6031 101.25 16.2937Z" fill="#282C33"/>
<path d="M107.812 16.4251V16.172C107.766 15.0516 107.953 13.9337 108.36 12.8891C108.768 11.8444 109.388 10.8957 110.181 10.1027C110.974 9.30979 111.922 8.68993 112.967 8.2823C114.012 7.87467 115.13 7.68813 116.25 7.73446C120 7.73446 123.516 9.38446 123.928 14.0626H119.653C119.63 13.6488 119.521 13.2442 119.334 12.8744C119.147 12.5045 118.885 12.1773 118.566 11.9133C118.246 11.6492 117.876 11.454 117.477 11.3399C117.079 11.2258 116.661 11.1952 116.25 11.2501C113.916 11.2501 112.359 13.0032 112.359 16.1157V16.3688C112.359 19.6407 113.822 21.3282 116.344 21.3282C116.781 21.3535 117.218 21.2918 117.631 21.1468C118.044 21.0017 118.425 20.7762 118.75 20.4832C119.075 20.1903 119.339 19.8357 119.526 19.44C119.713 19.0444 119.82 18.6155 119.841 18.1782H123.928C123.675 22.0407 120.872 24.7407 116.128 24.7407C111.384 24.7407 107.812 21.7501 107.812 16.4251Z" fill="#282C33"/>
<path d="M126.009 0.9375H130.538V10.65C131.045 9.70142 131.813 8.91817 132.752 8.3931C133.691 7.86802 134.761 7.62315 135.834 7.6875C139.05 7.6875 141.328 9.61875 141.328 13.9875V24.375H136.8V14.6437C136.8 12.4312 135.928 11.3719 133.931 11.3719C131.934 11.3719 130.538 12.5531 130.538 14.9531V24.375H126.009V0.9375Z" fill="#282C33"/>
<path d="M143.306 19.8468C143.306 16.0499 146.794 14.6155 151.744 14.6155H153.619V13.9593C153.619 12.028 153.028 10.9593 150.966 10.9593C150.626 10.9091 150.28 10.9307 149.949 11.0226C149.618 11.1145 149.31 11.2747 149.045 11.4929C148.78 11.7111 148.564 11.9824 148.41 12.2893C148.257 12.5963 148.169 12.932 148.153 13.2749H143.878C144.159 9.40303 147.216 7.6499 151.209 7.6499C155.203 7.6499 158.034 9.27178 158.034 13.6968V24.3749H153.638V22.4062C153.086 23.1831 152.343 23.8039 151.481 24.2081C150.618 24.6123 149.665 24.786 148.716 24.7124C145.8 24.7124 143.306 23.278 143.306 19.8468ZM153.619 18.6655V17.2968H151.875C149.25 17.2968 147.722 17.8593 147.722 19.603C147.722 20.7843 148.444 21.5624 150.094 21.5624C152.1 21.5624 153.628 20.4749 153.628 18.6655H153.619Z" fill="#282C33"/>
<path d="M161.006 8.06257H165.534V11.1845C165.948 10.1404 166.679 9.2527 167.624 8.64702C168.57 8.04134 169.682 7.74833 170.803 7.80945V12.0282C167.466 12.0282 165.534 13.0876 165.534 16.2001V24.3751H161.006V8.06257Z" fill="#282C33"/>
<path d="M173.803 19.5376V11.2501H171.713V8.0626H173.803V4.5376H178.294V8.0626H181.875V11.2501H178.294V19.1063C178.294 20.4188 178.95 21.0376 180.103 21.0376C180.715 21.0204 181.318 20.8801 181.875 20.6251V24.3751C180.959 24.6199 180.01 24.7242 179.063 24.6845C175.641 24.6845 173.803 22.9407 173.803 19.5376Z" fill="#282C33"/>
<path d="M0 6.75488V20.2549L11.5 27V23.6323L2.875 18.5613V8.43873L0 6.75488Z" fill="#F96B13"/>
<path d="M20.125 8.43873V21.9387L23 20.2549V6.75488L20.125 8.43873Z" fill="#CC4E00"/>
<path d="M8.625 1.68385L20.125 8.43872L23 6.75487L11.5 0L8.625 1.68385Z" fill="#FFCA73"/>
<path d="M0 6.75486L2.875 8.43872L5.75 6.75486L2.875 5.06128L0 6.75486Z" fill="#FFCA73"/>
<path d="M2.875 8.43873V18.5613L5.75 16.8774V6.75488L2.875 8.43873Z" fill="#CC4E00"/>
<path d="M11.5 23.6323V27L14.375 25.3162V21.9387L11.5 23.6323Z" fill="#CC4E00"/>
<path d="M2.875 18.5613L11.5 23.6323L14.375 21.9387L5.75 16.8774L2.875 18.5613Z" fill="#FFCA73"/>
<path d="M8.625 1.68384V5.06127L17.25 10.1226V20.2549L20.125 21.9387V8.4387L8.625 1.68384Z" fill="#F96B13"/>
</svg>
